<svg width="97" height="107" viewBox="0 0 97 107" fill="none" xmlns="http://www.w3.org/2000/svg">
<g filter="url(#filter0_d_1_180)">
<rect opacity="0.3" x="4" width="62" height="59.8408" rx="6" fill="#2289FF"/>
<path d="M45.5 16.8906L72 4.82593L84.5 18.3384V97.0001H72H45.5V16.8906Z" fill="#FEFEFE"/>
<path d="M72 4.82593L45.5 16.8906V97.0001M72 4.82593L84.5 18.3384V97.0001M72 4.82593V97.0001M45.5 97.0001H72M45.5 97.0001H23M84.5 97.0001H72M84.5 97.0001H91" stroke="#0F2B4A" stroke-width="4" stroke-linecap="round" stroke-linejoin="round"/>
<path d="M20.5 96.9999V52.6019L42 42.9502L55 52.6019V96.9999H42H20.5Z" fill="#FEFEFE"/>
<path d="M12 96.9999H20.5M20.5 96.9999V52.6019L42 42.9502M20.5 96.9999H42M42 42.9502L55 52.6019V96.9999H42M42 42.9502V96.9999" stroke="#0F2B4A" stroke-width="4" stroke-linecap="round" stroke-linejoin="round"/>
</g>
<defs>
<filter id="filter0_d_1_180" x="0" y="0" width="97" height="107" filterUnits="userSpaceOnUse" color-interpolation-filters="sRGB">
<feFlood flood-opacity="0" result="BackgroundImageFix"/>
<feColorMatrix in="SourceAlpha" type="matrix" values="0 0 0 0 0 0 0 0 0 0 0 0 0 0 0 0 0 0 127 0" result="hardAlpha"/>
<feOffset dy="4"/>
<feGaussianBlur stdDeviation="2"/>
<feComposite in2="hardAlpha" operator="out"/>
<feColorMatrix type="matrix" values="0 0 0 0 0 0 0 0 0 0 0 0 0 0 0 0 0 0 0.25 0"/>
<feBlend mode="normal" in2="BackgroundImageFix" result="effect1_dropShadow_1_180"/>
<feBlend mode="normal" in="SourceGraphic" in2="effect1_dropShadow_1_180" result="shape"/>
</filter>
</defs>
</svg>
