<?xml version="1.0" standalone="no"?>
<!DOCTYPE svg PUBLIC "-//W3C//DTD SVG 20010904//EN"
 "http://www.w3.org/TR/2001/REC-SVG-20010904/DTD/svg10.dtd">
<svg version="1.0" xmlns="http://www.w3.org/2000/svg"
 width="1960.000000pt" height="1960.000000pt" viewBox="0 0 1960.000000 1960.000000"
 preserveAspectRatio="xMidYMid meet">
<metadata>
Created by potrace 1.14, written by Peter Selinger 2001-2017
</metadata>
<g transform="translate(0.000000,1960.000000) scale(0.100000,-0.100000)"
fill="#000000" stroke="none">
<path d="M11667 12414 c-1 -2 -22 -4 -45 -5 -23 -2 -42 -6 -42 -11 0 -4 -7 -5
-15 -2 -8 3 -38 -2 -67 -12 -29 -9 -55 -16 -57 -15 -2 2 -7 -1 -10 -6 -3 -4
-22 -17 -41 -27 -130 -71 -218 -185 -256 -331 -16 -59 -11 -219 8 -285 28 -98
129 -233 205 -274 63 -34 112 -58 125 -60 7 -2 21 -7 32 -11 10 -4 31 -8 47
-9 16 -1 29 -3 29 -6 0 -7 9 -7 130 -10 92 -1 169 12 237 41 24 10 45 17 48
16 2 -1 14 6 25 16 11 9 24 17 29 17 12 0 133 119 157 155 23 34 62 124 67
152 1 10 5 23 8 28 7 11 3 186 -4 220 -9 47 -31 105 -39 105 -4 0 -7 3 -6 8 2
8 -18 48 -36 69 -71 87 -184 177 -236 187 -3 1 -9 4 -15 8 -15 9 -88 28 -132
33 -52 7 -142 13 -146 9z"/>
<path d="M14308 11064 c-3 -2 -49 -6 -104 -9 -54 -3 -110 -7 -124 -10 -14 -2
-43 -6 -65 -10 -22 -3 -51 -8 -65 -10 -14 -2 -40 -8 -57 -14 -18 -5 -33 -8
-33 -6 0 2 -33 -7 -72 -21 -40 -13 -75 -25 -78 -25 -35 -7 -173 -72 -257 -121
-135 -79 -291 -213 -391 -335 -35 -43 -130 -188 -144 -220 -7 -15 -15 -30 -18
-33 -29 -28 -129 -320 -146 -425 -3 -16 -9 -52 -14 -80 -21 -108 -34 -455 -18
-487 6 -12 5 -18 -2 -18 -6 0 -8 -5 -4 -12 4 -7 9 -28 10 -48 1 -19 5 -52 8
-72 3 -21 9 -55 12 -75 3 -21 7 -46 10 -55 3 -9 6 -25 8 -35 12 -60 51 -189
76 -248 150 -354 377 -603 701 -766 53 -27 100 -49 104 -49 4 0 21 -6 38 -14
18 -8 66 -24 107 -36 160 -44 175 -47 261 -56 58 -5 94 -11 94 -14 0 -5 331
-6 339 -1 5 2 32 6 60 8 75 6 111 10 111 12 0 3 18 7 69 15 61 10 90 18 104
29 6 5 12 7 12 4 0 -22 342 131 388 174 12 10 26 19 31 19 5 0 16 6 23 13 7 7
36 30 63 52 96 76 239 230 281 303 10 17 21 32 25 32 4 0 9 8 12 18 3 9 20 40
36 67 17 28 34 57 37 65 10 25 33 78 48 113 18 40 57 155 61 182 2 11 9 36 14
55 6 19 11 37 11 40 0 3 -235 5 -522 5 l-522 0 -43 -87 c-24 -49 -48 -88 -54
-88 -5 0 -9 -4 -9 -10 0 -12 -68 -80 -80 -80 -6 0 -10 -4 -10 -8 0 -5 -26 -22
-57 -38 -32 -16 -58 -27 -58 -26 0 2 -12 -1 -26 -7 -56 -21 -229 -36 -229 -20
0 4 -11 6 -25 3 -40 -7 -156 32 -223 76 -34 22 -62 44 -62 49 0 5 -9 13 -21
16 -11 4 -18 9 -16 12 3 2 -6 15 -18 27 -26 26 -91 137 -87 149 1 4 -2 7 -8 7
-5 0 -10 8 -10 18 0 10 -5 23 -12 30 -7 7 -9 12 -6 12 4 0 0 16 -8 35 -8 19
-14 37 -13 40 0 3 -3 20 -7 38 -4 17 -8 43 -10 57 -1 14 -3 25 -4 25 0 0 -4
34 -7 75 -18 250 10 458 83 618 72 155 234 292 379 319 51 10 249 8 272 -2 10
-5 20 -9 23 -10 136 -35 247 -134 316 -282 l29 -63 523 0 c494 0 523 1 518 18
-3 9 -8 35 -12 57 -4 22 -10 45 -14 50 -4 6 -13 33 -20 60 -7 28 -17 54 -21
60 -5 5 -9 15 -9 23 0 13 -52 131 -71 162 -5 8 -12 22 -16 30 -26 59 -152 227
-227 304 -95 96 -129 124 -231 193 -58 40 -234 133 -250 133 -4 0 -21 6 -38
14 -33 15 -153 51 -197 60 -14 2 -47 9 -75 15 -71 14 -125 20 -245 27 -58 3
-110 7 -117 9 -6 2 -13 2 -15 -1z"/>
<path d="M1619 11055 c-2 -1 -31 -6 -64 -9 -113 -12 -261 -45 -368 -82 -68
-24 -236 -103 -302 -141 -113 -66 -282 -216 -370 -328 -22 -27 -43 -51 -47
-53 -5 -2 -8 -7 -8 -12 0 -5 -16 -32 -35 -62 -60 -90 -173 -340 -181 -398 -1
-8 -11 -53 -23 -100 -36 -149 -46 -247 -45 -465 0 -170 7 -264 28 -385 13 -68
56 -223 76 -268 11 -24 20 -50 20 -56 0 -38 163 -313 235 -396 44 -51 185
-192 185 -185 0 3 11 -5 24 -19 13 -15 27 -26 32 -26 5 -1 25 -14 44 -30 19
-17 39 -30 44 -30 5 0 17 -6 25 -14 30 -27 248 -132 294 -142 4 -1 9 -3 12 -4
3 -1 8 -3 13 -5 4 -1 14 -5 22 -8 21 -9 180 -48 210 -52 14 -2 39 -6 55 -9
101 -18 415 -29 437 -15 6 4 21 3 34 -1 12 -5 25 -6 28 -2 7 6 19 9 81 17 145
17 304 66 455 138 58 28 108 50 113 49 4 -1 7 2 7 6 0 4 15 16 33 27 68 39
176 125 243 192 89 90 134 141 134 153 0 6 4 10 8 10 10 0 104 143 134 206 14
27 29 58 35 69 13 22 61 151 68 181 2 10 7 28 10 39 6 20 2 20 -516 20 l-523
0 -32 -53 c-31 -52 -88 -119 -133 -155 -23 -18 -141 -78 -141 -71 0 2 -12 -1
-26 -7 -15 -5 -43 -12 -63 -15 -20 -3 -38 -8 -40 -10 -2 -2 -12 1 -22 6 -10 6
-20 6 -23 2 -10 -17 -156 -2 -241 25 -53 16 -147 65 -178 92 -72 63 -154 173
-161 215 -1 6 -6 18 -11 26 -5 8 -10 17 -11 20 0 3 -5 23 -12 45 -12 44 -19
77 -28 143 l-6 42 64 0 c35 1 531 1 1103 1 572 0 1047 2 1055 4 11 4 16 25 19
82 10 182 4 388 -14 498 -20 119 -20 122 -39 183 -8 29 -12 52 -8 52 3 0 1 5
-6 12 -7 7 -12 21 -12 33 0 12 -4 25 -8 30 -5 6 -17 33 -27 60 -33 90 -121
252 -161 298 -6 7 -13 17 -15 23 -16 42 -219 254 -290 301 -121 82 -261 164
-289 169 -6 1 -30 11 -97 40 -29 13 -53 21 -53 19 0 -2 -18 2 -39 10 -33 11
-151 38 -271 60 -37 7 -435 16 -441 10z m321 -799 c137 -23 288 -123 371 -245
50 -75 96 -270 67 -287 -19 -12 -202 -11 -210 1 -5 7 -8 7 -8 0 0 -7 -171 -9
-497 -8 -571 2 -516 0 -508 13 4 6 8 23 11 38 8 45 35 124 62 182 31 64 32 66
97 134 93 98 203 156 330 173 22 3 42 7 45 10 6 6 190 -3 240 -11z"/>
<path d="M9105 11050 c-27 -4 -68 -11 -90 -14 -33 -5 -96 -21 -160 -40 -68
-20 -261 -119 -285 -146 -3 -3 -28 -22 -55 -42 -58 -42 -195 -185 -195 -204 0
-6 -26 -34 -32 -34 -2 0 -3 99 -2 220 1 152 -3 220 -10 221 -6 1 -227 2 -492
3 l-481 1 0 -2372 c0 -1305 3 -2373 6 -2374 8 -1 953 -1 967 0 8 1 11 282 12
974 0 534 1 978 1 985 1 8 20 -10 43 -40 65 -83 166 -177 248 -230 41 -26 80
-51 85 -55 13 -11 59 -31 65 -29 3 0 17 -6 30 -15 21 -13 101 -44 145 -56 66
-17 96 -24 130 -28 59 -8 69 -10 80 -16 25 -12 333 0 415 16 14 3 37 7 51 10
14 3 45 12 69 20 24 8 45 13 48 10 3 -3 10 -1 16 4 6 5 29 14 51 21 140 45
347 183 470 312 79 82 165 191 165 207 0 6 5 11 10 11 6 0 10 7 10 15 0 8 4
15 8 15 4 0 13 12 19 28 7 15 30 59 51 98 32 58 96 213 97 234 0 3 3 10 7 15
6 10 36 121 44 163 2 12 6 34 9 50 3 15 8 45 11 66 3 22 7 43 9 47 7 10 18
204 19 304 0 131 -13 308 -29 385 -3 14 -8 36 -10 50 -18 97 -42 181 -79 277
-32 84 -95 222 -106 233 -3 3 -16 25 -29 50 -57 104 -208 282 -312 366 -168
137 -391 236 -629 279 -55 10 -340 14 -395 5z m-40 -854 c74 -7 87 -10 150
-31 118 -40 249 -137 327 -243 43 -58 94 -154 102 -193 3 -13 13 -49 21 -79
38 -136 33 -398 -10 -521 -8 -22 -12 -39 -10 -39 2 0 -10 -27 -26 -60 -16 -33
-29 -65 -29 -70 0 -6 -3 -10 -8 -10 -4 0 -16 -16 -27 -36 -23 -42 -152 -174
-171 -174 -8 0 -14 -4 -14 -10 0 -5 -6 -10 -14 -10 -8 0 -16 -4 -18 -8 -3 -10
-109 -61 -142 -69 -117 -29 -242 -36 -346 -19 -45 7 -168 53 -212 79 -139 82
-250 218 -301 367 -37 108 -49 174 -51 290 0 36 -5 68 -11 72 -7 5 -7 8 0 8 6
0 11 17 11 38 1 76 17 175 39 232 7 19 14 38 14 42 12 57 101 195 163 254 71
67 176 136 228 149 3 1 30 9 60 19 30 9 86 19 124 22 39 3 72 7 74 9 3 2 8 3
11 0 4 -2 33 -6 66 -9z"/>
<path d="M17627 11054 c-2 -2 -26 -6 -53 -9 -54 -6 -136 -21 -219 -39 -44 -10
-197 -62 -227 -77 -21 -11 -38 -16 -38 -12 0 5 -4 4 -8 -2 -9 -12 -84 -49 -94
-47 -5 1 -8 -2 -8 -6 0 -5 -12 -14 -27 -21 -110 -50 -323 -231 -411 -350 -15
-20 -29 -38 -32 -41 -12 -12 -91 -140 -123 -201 -65 -123 -143 -361 -150 -454
-1 -19 -4 -35 -7 -35 -3 0 -6 -8 -7 -17 0 -10 -4 -58 -9 -108 -14 -160 -9
-460 10 -547 3 -12 8 -36 10 -53 28 -173 106 -385 208 -560 13 -22 28 -45 33
-52 6 -7 16 -19 23 -27 6 -8 12 -18 12 -21 0 -29 202 -235 294 -300 16 -11 33
-25 40 -30 19 -17 108 -72 166 -101 30 -15 57 -30 60 -33 3 -4 12 -7 20 -9 8
-2 32 -12 55 -22 42 -19 189 -67 227 -74 13 -2 34 -7 48 -10 44 -10 84 -17
120 -21 19 -2 58 -7 85 -11 63 -8 336 -9 395 0 25 3 67 9 94 12 27 3 56 7 65
9 179 43 250 65 361 118 47 22 88 39 93 39 4 -1 7 2 7 8 0 5 5 10 11 10 14 0
163 97 208 136 53 45 162 154 204 204 91 108 226 340 242 416 2 6 13 39 26 73
15 44 19 65 11 70 -6 3 -242 6 -524 6 l-513 0 -18 -37 c-10 -21 -23 -38 -28
-38 -5 0 -9 -6 -9 -14 0 -12 -67 -85 -113 -123 -22 -17 -107 -59 -147 -71 -96
-29 -249 -33 -366 -8 -38 8 -174 68 -174 76 0 5 -9 11 -19 15 -20 6 -121 103
-121 116 0 4 -6 14 -13 21 -34 34 -91 184 -103 274 -3 21 -7 51 -9 67 -4 26
-3 27 43 27 26 1 527 1 1115 1 587 0 1067 3 1068 7 8 53 10 91 13 227 4 196
-7 327 -37 456 -9 37 -18 78 -21 90 -2 13 -12 44 -21 69 -9 25 -20 59 -26 75
-9 33 -53 130 -69 155 -5 8 -17 31 -27 50 -19 40 -82 136 -127 195 -64 83
-240 249 -304 285 -14 8 -34 22 -44 30 -15 13 -203 113 -218 116 -3 0 -18 6
-35 13 -58 24 -201 69 -236 74 -18 3 -41 7 -49 10 -8 3 -33 9 -55 12 -22 3
-53 8 -70 11 -35 6 -452 13 -458 8z m354 -800 c8 -5 24 -9 35 -10 31 -1 152
-61 199 -98 62 -49 112 -106 145 -168 17 -32 28 -58 24 -58 -3 0 -1 -7 6 -15
7 -8 10 -15 6 -15 -3 0 -1 -11 4 -25 5 -14 12 -52 16 -85 4 -46 3 -60 -8 -61
-63 -4 -237 -1 -246 5 -7 4 -12 4 -12 -1 0 -10 -452 -9 -468 1 -7 4 -12 4 -12
-1 0 -12 -134 -10 -142 2 -5 7 -8 7 -8 0 0 -8 -185 -12 -314 -6 -16 1 -17 6
-12 34 4 17 9 42 12 55 20 101 91 223 174 302 49 46 165 117 205 126 6 1 37 9
70 17 65 17 301 17 326 1z"/>
<path d="M3607 11012 c-13 -3 -12 -9 9 -40 14 -20 28 -39 32 -42 4 -3 14 -17
22 -32 13 -23 82 -124 225 -328 17 -25 51 -74 76 -110 24 -36 52 -74 61 -84
10 -11 18 -25 18 -32 0 -7 4 -14 8 -16 4 -1 42 -52 83 -113 134 -195 193 -280
206 -293 7 -7 13 -17 13 -22 0 -5 6 -15 13 -22 7 -7 23 -30 36 -51 13 -21 28
-43 34 -50 11 -11 65 -88 107 -153 8 -13 39 -57 68 -98 28 -42 52 -80 52 -85
0 -9 -141 -234 -167 -266 -4 -6 -17 -26 -27 -45 -11 -19 -22 -37 -26 -40 -3
-3 -37 -54 -75 -115 -38 -60 -73 -111 -77 -113 -4 -2 -8 -8 -8 -12 0 -5 -44
-76 -97 -157 -53 -81 -96 -150 -94 -152 1 -2 -1 -7 -6 -10 -5 -3 -29 -37 -53
-76 -25 -38 -48 -71 -52 -73 -5 -2 -8 -8 -8 -12 0 -5 -39 -69 -86 -142 -48
-73 -108 -167 -135 -208 -27 -41 -53 -80 -59 -87 -5 -7 -10 -14 -10 -17 0 -6
-45 -75 -61 -94 -6 -7 -9 -15 -6 -18 4 -4 455 -6 938 -4 l125 0 17 33 c31 62
72 132 85 145 6 7 12 20 12 28 0 8 4 14 8 14 5 0 14 16 22 35 8 19 17 35 21
35 4 0 10 8 13 18 3 9 12 26 19 37 6 11 46 79 87 150 41 72 80 138 85 147 11
18 69 120 104 182 38 67 44 69 72 25 13 -21 27 -39 32 -39 4 0 6 -4 2 -9 -3
-5 -1 -12 5 -16 6 -3 29 -34 52 -68 23 -34 44 -64 47 -67 3 -3 11 -13 16 -22
6 -10 42 -63 80 -118 39 -55 75 -108 80 -118 6 -9 13 -19 16 -22 4 -3 19 -25
35 -50 16 -25 35 -52 42 -60 22 -26 61 -84 71 -105 5 -12 16 -27 25 -34 9 -7
16 -20 16 -27 0 -8 3 -14 8 -14 4 0 18 -18 32 -40 15 -25 32 -40 45 -40 11 -1
245 0 520 0 275 1 515 1 533 0 31 -1 32 0 20 22 -7 12 -16 27 -21 32 -4 6 -28
38 -52 71 -24 33 -45 65 -45 72 0 6 -4 13 -8 15 -4 2 -33 39 -63 83 -29 44
-57 84 -62 90 -6 9 -32 45 -142 203 -16 24 -34 51 -40 60 -5 9 -12 19 -15 22
-3 3 -41 57 -85 120 -43 63 -104 151 -134 195 -30 44 -59 82 -63 83 -4 2 -8 9
-8 16 0 7 -9 21 -20 31 -11 10 -20 24 -20 32 0 7 -3 13 -7 13 -5 0 -21 21 -37
48 -26 41 -53 78 -86 119 -6 7 -10 14 -10 17 0 3 -39 60 -86 126 l-86 121 29
45 c15 26 32 55 38 65 5 10 13 19 17 19 5 0 8 6 8 13 0 7 9 23 20 34 10 12 34
45 52 75 18 29 36 58 41 63 21 26 157 237 157 245 0 4 4 10 8 12 11 4 172 246
172 257 0 5 3 11 8 13 4 2 34 44 67 93 33 50 63 92 68 93 4 2 7 7 7 12 0 11
82 134 93 138 4 2 7 8 7 14 0 6 11 26 25 44 14 19 25 36 24 40 0 4 3 10 9 13
9 6 143 206 151 226 2 5 9 15 15 22 32 36 59 83 49 84 -21 3 -1030 4 -1044 1
-9 -2 -27 -22 -39 -45 -13 -23 -58 -102 -102 -174 -43 -73 -78 -137 -78 -143
0 -5 -4 -10 -8 -10 -4 0 -13 -12 -20 -27 -6 -16 -21 -41 -32 -58 -11 -16 -24
-39 -30 -50 -5 -11 -21 -38 -35 -60 -14 -22 -29 -49 -35 -60 -5 -11 -23 -42
-40 -70 -16 -27 -46 -78 -66 -112 -19 -35 -39 -65 -42 -67 -4 -2 -36 39 -71
93 -36 53 -70 101 -76 106 -6 6 -25 33 -43 60 -17 28 -35 55 -40 60 -9 11
-126 181 -152 220 -8 12 -33 48 -55 80 -22 31 -72 102 -111 158 l-72 101 -534
1 c-294 0 -542 -1 -551 -3z"/>
<path d="M11219 11010 c-10 -7 -10 -3198 1 -3205 6 -3 579 -7 906 -5 l70 0 0
1607 -1 1607 -483 1 c-266 0 -488 -2 -493 -5z"/>
</g>
</svg>
