<?xml version="1.0" standalone="no"?>
<!DOCTYPE svg PUBLIC "-//W3C//DTD SVG 20010904//EN"
 "http://www.w3.org/TR/2001/REC-SVG-20010904/DTD/svg10.dtd">
<svg version="1.0" xmlns="http://www.w3.org/2000/svg"
 width="2656.000000pt" height="2656.000000pt" viewBox="0 0 2656.000000 2656.000000"
 preserveAspectRatio="xMidYMid meet">
<metadata>
Created by potrace 1.14, written by Peter Selinger 2001-2017
</metadata>
<g transform="translate(0.000000,2656.000000) scale(0.100000,-0.100000)"
fill="#000000" stroke="none">
<path d="M1805 17259 c-49 -10 -124 -29 -165 -40 -41 -12 -100 -28 -130 -36
-133 -37 -284 -87 -460 -149 -141 -51 -435 -161 -465 -174 -41 -19 -310 -131
-320 -134 -5 -1 -55 -23 -109 -49 -54 -26 -104 -47 -110 -47 -6 0 -19 -7 -29
-14 -14 -11 -15 -19 -8 -39 5 -14 8 -27 5 -30 -2 -2 0 -15 5 -29 5 -14 12 -38
15 -54 2 -16 7 -40 11 -54 3 -14 7 -36 10 -50 3 -14 9 -40 14 -58 5 -18 10
-35 10 -37 1 -3 1 -6 2 -7 0 -2 2 -11 4 -21 2 -11 5 -21 7 -23 4 -3 89 26 133
46 18 8 49 18 80 26 6 2 48 15 95 29 227 70 356 6 397 -195 9 -42 10 -174 1
-197 -4 -14 -4 -23 3 -23 6 0 7 -4 4 -10 -3 -5 -8 -43 -10 -82 -2 -40 -7 -98
-10 -128 -4 -30 -8 -73 -10 -95 -8 -77 -19 -163 -31 -245 -2 -19 -7 -54 -9
-77 -10 -91 -14 -119 -20 -153 -3 -19 -8 -53 -10 -74 -5 -47 -14 -112 -20
-146 -2 -14 -7 -45 -10 -70 -4 -25 -8 -56 -10 -70 -2 -14 -7 -45 -10 -70 -3
-25 -9 -58 -12 -75 -3 -16 -7 -46 -8 -65 -2 -19 -4 -35 -5 -35 -1 0 -3 -11 -5
-25 -1 -14 -8 -60 -14 -103 -19 -118 -21 -130 -26 -155 -3 -12 -8 -44 -11 -70
-3 -26 -7 -58 -10 -72 -3 -14 -7 -41 -9 -60 -3 -19 -7 -45 -9 -57 -3 -11 -8
-43 -12 -70 -3 -26 -8 -57 -10 -68 -3 -11 -7 -38 -9 -60 -3 -22 -7 -51 -10
-65 -3 -14 -7 -38 -9 -55 -3 -16 -7 -43 -10 -60 -9 -54 -14 -89 -31 -200 -20
-136 -22 -144 -29 -175 -7 -30 -15 -82 -21 -130 -2 -19 -9 -66 -15 -105 -6
-38 -13 -86 -16 -105 -2 -19 -7 -42 -9 -51 -3 -9 -8 -36 -10 -60 -3 -24 -7
-55 -9 -69 -5 -24 -12 -73 -21 -140 -2 -17 -6 -43 -9 -58 -3 -15 -8 -45 -11
-67 -3 -23 -7 -50 -9 -61 -2 -12 -7 -45 -11 -75 -3 -30 -8 -61 -10 -69 -3 -8
-7 -31 -9 -50 -3 -19 -14 -97 -25 -173 -12 -75 -23 -156 -26 -180 -2 -23 -6
-51 -8 -62 -3 -11 -8 -51 -13 -90 -4 -38 -8 -72 -9 -75 -1 -3 -5 -39 -9 -80
-5 -41 -10 -84 -12 -95 -2 -11 -6 -48 -10 -83 -3 -35 -7 -71 -9 -82 -7 -36
-18 -246 -18 -335 1 -121 8 -167 46 -285 23 -70 127 -282 148 -300 3 -3 20
-27 39 -55 41 -61 102 -136 152 -189 21 -22 38 -42 38 -46 0 -4 11 -13 25 -20
14 -7 23 -15 21 -18 -5 -4 74 -72 190 -164 76 -60 274 -192 274 -182 0 4 6 1
14 -5 41 -34 277 -132 366 -152 30 -6 69 -15 85 -19 45 -10 344 2 365 15 3 2
30 6 60 10 30 4 58 9 61 11 3 2 19 5 35 8 16 3 61 15 99 26 39 11 77 22 85 24
94 24 424 174 528 240 23 14 46 26 51 26 5 0 11 3 13 8 2 4 44 34 93 67 50 32
92 62 95 65 3 3 23 19 45 35 22 17 42 32 45 35 3 3 30 25 60 50 97 79 371 360
428 438 9 13 29 37 45 52 15 16 27 31 27 34 0 3 20 32 45 63 66 85 233 333
300 448 55 92 198 360 211 395 3 8 14 33 25 55 68 148 186 482 202 575 3 14
10 43 15 65 10 37 15 64 27 135 2 14 6 39 9 55 9 60 17 131 21 198 2 38 6 71
9 75 3 3 1 10 -4 17 -5 7 -6 24 -2 41 4 16 7 40 5 54 -1 14 -5 71 -8 128 -3
57 -7 114 -9 127 -2 12 -8 49 -11 81 -4 33 -9 68 -12 79 -2 11 -6 31 -9 45
-10 53 -48 187 -66 235 -11 27 -20 55 -22 60 -1 6 -12 32 -24 59 -12 27 -22
50 -22 53 0 10 -94 168 -101 171 -5 2 -9 9 -9 16 0 18 -113 153 -183 219 -102
96 -246 182 -387 233 -79 28 -242 56 -325 55 -72 0 -210 -12 -245 -21 -25 -6
-54 -12 -65 -14 -80 -13 -106 -19 -111 -27 -3 -5 -9 -7 -14 -4 -5 3 -34 -6
-63 -20 -30 -14 -57 -25 -60 -25 -9 0 -113 -51 -162 -80 -22 -13 -57 -32 -77
-43 -21 -12 -38 -24 -38 -29 0 -4 -6 -8 -13 -8 -7 0 -23 -9 -35 -20 -12 -11
-24 -20 -27 -20 -3 0 -13 -7 -22 -16 -10 -8 -47 -38 -83 -65 -127 -99 -290
-253 -426 -407 -123 -137 -115 -130 -110 -102 3 14 8 41 11 60 2 19 6 44 9 55
2 11 7 42 10 68 4 27 9 57 11 67 5 25 15 89 21 130 2 19 6 44 8 55 2 11 8 45
12 75 8 56 10 64 14 78 1 4 2 10 1 14 0 4 3 29 9 55 5 27 12 66 15 88 3 22 10
65 15 95 5 30 12 71 14 90 3 19 5 35 6 35 1 0 3 12 5 26 2 15 6 44 10 65 3 22
8 53 10 69 3 17 7 41 10 55 3 14 8 48 11 75 3 28 7 57 10 65 5 14 16 100 17
128 0 6 3 12 6 12 3 0 7 17 8 38 2 39 6 70 17 142 4 25 9 57 12 73 2 15 6 41
9 59 3 17 8 52 10 77 2 25 5 46 5 46 2 0 7 26 14 80 4 28 9 61 11 75 2 14 6
45 9 70 13 90 37 256 42 280 2 14 7 50 10 80 2 30 7 69 10 85 7 36 14 87 19
138 2 21 7 43 11 49 5 7 3 8 -6 3 -9 -6 -11 -4 -6 4 8 12 21 101 32 211 3 30
7 73 9 95 16 149 22 352 15 465 -7 97 -42 198 -79 228 -76 60 -206 75 -366 41z
m980 -3874 c6 -1 25 -6 43 -10 17 -4 32 -11 32 -16 0 -5 6 -9 13 -9 36 0 154
-145 187 -230 7 -19 17 -40 22 -46 24 -32 75 -229 93 -359 4 -27 9 -63 11 -80
4 -26 15 -239 15 -272 0 -15 0 -77 0 -95 0 -54 -16 -268 -27 -353 -4 -27 -8
-61 -9 -75 -3 -26 -6 -45 -30 -176 -14 -76 -78 -321 -92 -354 -3 -8 -7 -17 -7
-20 -9 -49 -133 -321 -148 -328 -5 -2 -8 -8 -8 -13 0 -20 -106 -158 -181 -236
-27 -28 -49 -49 -49 -47 0 3 -15 -9 -32 -25 -34 -32 -168 -108 -168 -95 0 3
-6 1 -13 -5 -13 -10 -57 -20 -117 -26 -14 -2 -27 -4 -30 -5 -7 -2 -113 1 -131
4 -49 8 -209 83 -209 97 0 5 -5 9 -11 9 -7 0 -43 25 -80 55 -187 151 -314 327
-347 480 -13 58 -5 381 13 510 9 73 16 129 21 175 3 25 7 56 9 70 3 14 7 50
10 81 3 31 7 69 10 85 4 32 14 104 19 145 2 14 11 39 20 56 24 47 178 278 187
281 5 2 9 8 9 14 0 8 14 29 63 93 65 86 171 218 195 241 6 7 12 17 12 23 0 6
6 11 13 11 8 0 19 10 26 23 17 32 213 224 291 284 149 116 281 165 375 138z"/>
<path d="M23505 17264 c-33 -8 -71 -16 -85 -19 -68 -13 -546 -162 -625 -195
-40 -16 -110 -42 -125 -46 -20 -4 -192 -66 -277 -99 -37 -15 -120 -47 -183
-72 -63 -24 -152 -60 -197 -79 -45 -19 -84 -34 -86 -34 -3 0 -27 -10 -54 -22
-26 -12 -50 -22 -53 -23 -3 -1 -23 -9 -45 -19 -22 -10 -57 -25 -78 -33 -35
-14 -37 -18 -31 -46 3 -16 7 -35 9 -41 1 -6 5 -22 8 -36 4 -14 21 -83 37 -155
17 -71 32 -131 34 -132 1 -2 42 10 89 26 48 16 87 27 87 25 0 -3 9 0 21 6 11
6 29 13 40 16 10 2 29 7 42 10 12 3 29 7 37 9 8 2 15 4 15 5 0 1 7 3 15 5 8 1
40 9 70 17 86 22 200 11 238 -24 51 -48 71 -134 75 -321 1 -38 -1 -71 -6 -74
-4 -2 -3 -12 3 -22 5 -10 7 -20 5 -23 -3 -3 -7 -42 -10 -89 -9 -124 -13 -178
-20 -239 -3 -30 -7 -71 -9 -92 -2 -20 -7 -41 -10 -47 -4 -6 -2 -11 4 -11 6 0
8 -4 5 -10 -3 -5 -8 -26 -10 -47 -3 -21 -7 -54 -10 -73 -6 -47 -14 -116 -20
-170 -2 -25 -7 -61 -10 -80 -3 -19 -7 -53 -9 -75 -6 -52 -16 -122 -22 -160 -3
-16 -7 -46 -9 -65 -7 -62 -17 -134 -21 -155 -2 -11 -6 -38 -9 -60 -2 -22 -6
-49 -9 -60 -2 -11 -7 -47 -11 -80 -3 -32 -8 -62 -10 -65 -2 -3 -6 -30 -9 -60
-3 -30 -8 -65 -10 -76 -6 -31 -14 -81 -22 -139 -3 -27 -8 -52 -9 -55 -2 -3 -7
-33 -10 -65 -4 -33 -9 -62 -10 -65 -2 -3 -6 -30 -10 -60 -3 -30 -8 -62 -10
-70 -2 -8 -7 -35 -10 -60 -3 -25 -11 -74 -16 -110 -17 -105 -18 -113 -23 -153
-3 -21 -10 -63 -15 -95 -6 -31 -13 -77 -16 -102 -3 -25 -10 -70 -15 -100 -5
-30 -12 -73 -15 -95 -4 -22 -8 -51 -11 -65 -2 -14 -7 -43 -10 -65 -3 -22 -7
-51 -10 -65 -2 -14 -7 -41 -9 -60 -3 -19 -8 -51 -12 -70 -3 -19 -7 -42 -8 -50
-7 -52 -16 -108 -20 -130 -3 -14 -8 -38 -10 -55 -2 -16 -6 -41 -9 -55 -4 -22
-7 -43 -21 -137 -2 -12 -6 -34 -9 -50 -3 -15 -8 -41 -10 -58 -8 -46 -16 -95
-26 -155 -5 -30 -12 -71 -15 -90 -3 -19 -8 -48 -11 -65 -6 -32 -11 -66 -18
-116 -3 -17 -7 -42 -10 -57 -3 -15 -8 -43 -11 -62 -13 -79 -16 -96 -20 -110
-2 -8 -7 -35 -10 -60 -8 -60 -20 -132 -31 -190 -3 -19 -8 -46 -9 -60 -2 -14
-4 -25 -5 -25 -1 0 -3 -11 -5 -25 -1 -14 -5 -38 -8 -55 -3 -16 -8 -48 -12 -70
-3 -23 -7 -52 -10 -65 -3 -13 -7 -40 -10 -60 -3 -20 -8 -47 -10 -60 -3 -14 -8
-41 -11 -60 -3 -19 -6 -44 -8 -55 -2 -11 -9 -56 -15 -100 -13 -87 -18 -114
-27 -160 -3 -16 -7 -46 -9 -65 -2 -19 -4 -35 -5 -35 -3 0 -18 -95 -26 -165 -3
-19 -6 -42 -9 -50 -2 -8 -7 -37 -11 -65 -3 -27 -8 -59 -10 -70 -3 -11 -7 -36
-10 -55 -2 -19 -7 -46 -10 -60 -2 -14 -7 -43 -9 -65 -3 -22 -7 -57 -11 -77 -6
-40 -4 -43 125 -157 35 -31 70 -63 78 -72 13 -13 29 -8 153 53 77 37 144 68
150 68 5 0 10 5 10 10 0 6 3 9 8 9 4 -1 10 0 15 1 4 1 10 3 15 4 4 1 34 15 67
30 33 15 69 31 80 36 11 4 72 30 135 56 63 26 118 52 121 57 3 5 8 8 10 7 2
-1 18 4 34 11 17 7 32 13 35 14 7 2 77 34 170 77 41 19 127 58 190 87 l116 53
-11 82 c-12 88 -12 258 -1 441 9 142 15 220 16 220 1 0 5 33 14 130 4 39 9 88
12 110 2 22 7 56 9 75 2 19 6 55 9 80 3 25 8 65 11 90 2 25 6 54 9 66 4 18 11
72 21 149 1 11 5 39 9 63 8 44 10 58 20 132 12 86 16 116 21 140 3 14 8 45 11
70 3 25 9 61 13 80 l7 35 52 -77 c29 -42 52 -81 52 -87 0 -5 4 -11 8 -13 17
-7 88 -138 247 -458 203 -406 285 -576 285 -587 0 -6 3 -13 8 -15 4 -2 51 -91
104 -198 54 -107 113 -222 131 -255 19 -33 47 -82 62 -110 48 -87 100 -170
108 -173 4 -2 7 -8 7 -13 0 -10 77 -129 90 -139 3 -3 17 -21 30 -40 37 -53 67
-86 160 -180 112 -112 196 -166 290 -187 24 -6 143 -4 169 1 14 3 54 16 90 28
36 12 68 23 71 23 27 6 286 134 385 190 106 60 401 253 433 283 7 6 16 12 20
12 4 0 19 10 34 23 14 12 36 29 48 37 23 16 143 108 228 175 28 22 53 45 56
52 3 6 -36 93 -85 192 l-90 181 -70 -36 c-73 -36 -248 -98 -309 -109 -19 -4
-60 -11 -90 -17 -83 -15 -251 -19 -267 -6 -7 6 -13 7 -13 4 0 -17 -100 54
-148 104 -63 65 -232 287 -232 304 0 2 -18 33 -40 67 -21 35 -58 98 -81 139
-23 41 -51 91 -62 110 -11 19 -33 60 -49 90 -16 30 -33 59 -37 65 -5 5 -25 42
-46 80 -74 137 -99 180 -108 186 -5 3 -8 10 -6 14 1 4 -3 14 -10 24 -6 9 -17
26 -24 38 -7 12 -37 61 -67 109 -30 47 -60 93 -65 102 -18 30 -70 107 -75 112
-3 3 -21 28 -40 55 -19 28 -43 59 -53 70 -10 11 -28 33 -39 48 l-20 28 21 6
c11 3 21 9 21 13 0 4 14 13 31 20 17 7 36 18 42 24 7 6 64 42 127 80 63 38
118 74 121 79 3 5 8 8 10 6 4 -2 57 29 119 70 14 9 30 18 35 21 6 3 50 30 98
60 48 30 96 60 105 65 96 54 571 371 685 456 43 33 80 59 83 59 2 0 12 7 21
15 10 8 45 34 78 59 88 67 108 82 132 103 11 10 31 25 43 33 12 8 31 23 42 33
12 9 25 17 30 17 4 0 8 6 8 14 0 8 9 18 20 21 24 8 280 258 280 274 0 6 5 11
10 11 6 0 10 7 10 15 0 8 3 15 8 15 4 0 18 23 30 50 23 51 30 103 19 150 -3
14 -8 34 -11 45 -9 38 -36 95 -46 95 -6 0 -10 5 -10 10 0 16 -50 59 -94 82
-39 20 -56 25 -111 34 -16 3 -42 9 -57 14 -27 8 -463 6 -543 -4 -22 -2 -85 -7
-140 -10 -55 -4 -111 -8 -125 -10 -14 -3 -54 -8 -90 -11 -111 -11 -178 -19
-289 -31 -24 -3 -57 -7 -75 -9 -17 -2 -44 -6 -61 -9 -16 -3 -52 -8 -80 -10
-58 -6 -127 -16 -170 -23 -16 -3 -43 -7 -60 -9 -16 -1 -41 -5 -55 -8 -49 -9
-125 -19 -131 -18 -7 1 -5 -30 5 -108 10 -66 15 -107 21 -177 6 -64 12 -104
17 -108 2 -2 75 -5 163 -8 158 -5 237 -19 277 -50 39 -31 23 -105 -39 -174
-15 -17 -37 -42 -49 -55 -34 -39 -186 -172 -238 -208 -12 -8 -26 -19 -33 -25
-6 -5 -23 -19 -37 -30 -15 -11 -43 -35 -64 -52 -20 -18 -40 -33 -43 -33 -3 0
-15 -8 -27 -18 -11 -10 -57 -44 -101 -77 -45 -33 -81 -63 -81 -67 0 -4 -6 -8
-13 -8 -7 0 -24 -11 -39 -25 -15 -14 -32 -25 -38 -25 -5 0 -10 -4 -10 -8 0 -4
-18 -19 -40 -32 -22 -14 -40 -28 -40 -32 0 -5 -4 -8 -10 -8 -5 0 -18 -7 -27
-15 -10 -8 -65 -49 -123 -92 -58 -42 -109 -81 -115 -85 -5 -4 -48 -36 -95 -70
-47 -34 -87 -65 -90 -68 -3 -3 -25 -19 -50 -35 -25 -16 -47 -32 -50 -35 -15
-17 -101 -73 -105 -69 -2 3 0 21 5 40 5 19 11 54 14 79 3 25 8 56 11 70 3 14
7 39 9 55 4 30 14 88 22 128 2 12 6 39 9 62 3 22 10 65 15 95 6 30 12 69 14
85 3 17 7 41 10 55 6 34 29 179 32 210 1 14 3 25 4 25 2 0 8 33 14 75 3 19 8
46 10 60 3 13 8 42 12 65 3 22 10 60 15 85 5 25 11 62 13 82 2 21 7 50 10 65
12 57 19 99 21 123 1 14 3 25 4 25 1 0 4 16 7 35 2 19 11 76 20 125 8 50 17
104 20 120 2 17 7 44 11 60 3 17 7 37 8 45 3 30 17 126 21 145 8 39 13 71 30
170 16 101 20 126 28 180 2 17 13 86 25 155 20 128 29 183 36 235 3 17 7 41
10 55 5 25 11 67 20 143 3 23 8 53 10 67 3 14 7 45 10 70 2 25 7 61 10 80 5
37 24 177 29 220 6 51 17 126 22 159 3 19 8 55 10 80 3 26 7 63 10 84 8 72 13
112 18 167 3 30 8 75 11 100 20 193 26 523 12 631 -20 146 -55 223 -125 269
-31 19 -51 23 -132 25 -56 2 -120 -3 -155 -11z"/>
<path d="M20646 16443 c-1 -1 -22 -5 -47 -7 -56 -7 -102 -17 -179 -41 -161
-50 -396 -230 -486 -371 -10 -16 -21 -31 -25 -34 -14 -11 -78 -148 -97 -210
-32 -101 -46 -239 -30 -295 5 -16 11 -43 13 -58 6 -33 20 -58 60 -112 64 -85
146 -142 245 -169 36 -10 77 -22 91 -26 28 -8 311 -6 344 3 11 3 41 10 67 16
66 15 149 48 210 82 29 16 61 32 71 35 9 4 17 10 17 15 0 5 4 9 10 9 22 0 165
133 219 204 43 56 78 112 87 139 4 9 11 17 17 17 6 0 8 3 5 6 -3 3 5 32 18 65
46 113 68 248 54 330 -14 77 -19 93 -45 147 -39 81 -110 146 -208 192 -77 35
-118 48 -182 56 -52 6 -224 12 -229 7z"/>
<path d="M17299 14366 c-2 -2 -50 -7 -106 -10 -191 -11 -457 -64 -578 -116
-11 -5 -42 -16 -70 -26 -27 -9 -54 -21 -60 -26 -5 -4 -15 -8 -23 -8 -31 0
-349 -158 -457 -228 -11 -6 -27 -15 -35 -19 -30 -14 -259 -172 -345 -238 -11
-9 -33 -26 -49 -38 -17 -12 -37 -29 -46 -37 -9 -8 -41 -35 -73 -59 -31 -24
-57 -47 -57 -52 0 -5 -4 -9 -10 -9 -5 0 -18 -8 -29 -17 -126 -118 -122 -117
-116 -51 34 385 15 741 -45 840 -38 63 -115 94 -209 84 -59 -6 -72 -9 -136
-26 -34 -9 -90 -24 -130 -34 -5 -2 -17 -6 -25 -9 -18 -6 -271 -88 -285 -91 -5
-2 -17 -6 -25 -9 -8 -4 -78 -29 -155 -56 -77 -27 -169 -61 -205 -74 -36 -13
-99 -37 -140 -52 -41 -15 -84 -31 -95 -35 -74 -31 -156 -60 -169 -60 -9 0 -16
-4 -16 -10 0 -5 -3 -9 -7 -8 -7 3 -51 -12 -98 -33 -11 -5 -43 -17 -71 -28 -28
-11 -71 -28 -95 -39 -24 -10 -69 -29 -99 -42 -140 -59 -142 -60 -135 -89 4
-14 9 -35 11 -46 2 -11 20 -78 40 -150 19 -71 35 -138 35 -147 0 -24 8 -23
129 16 247 80 350 100 425 84 61 -14 97 -58 110 -132 3 -17 7 -44 10 -61 6
-34 6 -253 1 -305 -3 -19 -7 -69 -11 -110 -3 -41 -8 -88 -10 -105 -12 -110
-17 -154 -20 -185 -3 -19 -7 -60 -10 -90 -2 -30 -7 -70 -10 -88 -3 -17 -8 -49
-10 -70 -6 -51 -16 -120 -20 -144 -3 -11 -7 -44 -9 -72 -3 -28 -12 -89 -20
-136 -8 -47 -17 -105 -20 -130 -6 -44 -13 -88 -22 -140 -6 -38 -22 -140 -29
-185 -3 -23 -7 -50 -9 -60 -2 -11 -7 -45 -12 -75 -4 -30 -8 -57 -9 -60 -3 -9
-16 -95 -20 -125 -2 -16 -4 -30 -5 -30 -2 0 -13 -61 -25 -142 -2 -12 -6 -34
-9 -50 -3 -15 -9 -45 -12 -67 -3 -21 -8 -48 -10 -60 -9 -49 -24 -134 -29 -171
-4 -22 -8 -47 -10 -55 -2 -8 -7 -31 -10 -50 -5 -32 -32 -177 -41 -225 -2 -11
-7 -36 -10 -55 -4 -19 -9 -44 -11 -55 -2 -11 -6 -31 -8 -45 -2 -14 -7 -36 -10
-50 -6 -32 -23 -117 -30 -155 -3 -16 -8 -41 -11 -55 -3 -14 -7 -36 -9 -50 -2
-14 -4 -25 -5 -25 -2 0 -15 -60 -23 -110 -2 -11 7 -30 20 -42 13 -12 23 -20
23 -18 0 2 36 -32 81 -76 78 -78 82 -80 109 -69 16 7 31 10 34 9 2 -2 12 3 22
12 15 13 103 58 124 64 11 3 64 26 118 51 31 15 113 50 182 79 69 29 155 67
192 84 36 17 71 31 77 31 6 0 11 5 11 11 0 5 4 8 9 5 4 -3 17 1 27 9 10 8 27
15 37 15 9 0 17 5 17 10 0 6 6 10 14 10 7 0 54 20 105 45 50 25 94 45 97 45 2
0 42 18 89 41 l84 41 1 147 c1 80 3 169 5 196 3 28 6 73 8 100 6 65 17 156 22
175 2 8 7 39 10 69 4 30 8 62 10 72 2 9 7 39 11 66 3 26 8 57 11 68 2 11 6 32
8 47 2 15 8 53 14 85 6 32 12 69 15 83 2 14 9 52 15 85 6 33 12 71 15 85 5 33
18 100 23 125 2 11 10 54 18 95 8 41 17 84 20 95 2 11 13 65 25 120 28 134 29
139 46 209 20 79 17 72 39 141 10 33 19 62 19 65 10 55 154 368 190 410 7 8
16 23 19 33 4 9 11 17 17 17 5 0 10 6 10 13 0 17 139 189 204 252 78 75 145
134 166 145 10 5 24 16 32 23 14 14 115 77 123 77 3 0 22 10 43 23 57 35 188
75 277 83 135 13 214 -43 240 -173 25 -123 25 -441 0 -582 -6 -38 -15 -98 -20
-146 -3 -22 -7 -51 -10 -65 -3 -14 -7 -43 -10 -66 -2 -22 -11 -81 -19 -130 -8
-49 -17 -102 -19 -119 -3 -16 -10 -57 -15 -90 -6 -33 -14 -78 -17 -100 -3 -22
-10 -67 -16 -100 -6 -33 -13 -69 -14 -80 -1 -11 -3 -20 -4 -20 -1 0 -4 -13 -6
-30 -2 -16 -7 -46 -10 -65 -4 -19 -9 -48 -11 -65 -2 -16 -6 -39 -8 -51 -2 -12
-16 -93 -31 -180 -14 -87 -29 -172 -32 -189 -3 -16 -7 -41 -9 -55 -1 -14 -3
-25 -4 -25 -1 0 -3 -11 -5 -25 -1 -14 -5 -38 -9 -55 -3 -16 -8 -50 -12 -75 -3
-25 -7 -52 -10 -61 -3 -9 -7 -34 -10 -55 -4 -36 -17 -115 -28 -174 -2 -14 -7
-45 -10 -70 -3 -25 -8 -58 -11 -75 -13 -76 -17 -130 -20 -268 -3 -120 0 -160
15 -212 10 -36 17 -65 14 -65 -2 0 3 -15 13 -32 9 -18 16 -36 15 -40 -1 -5 1
-8 6 -8 4 0 13 -13 20 -29 33 -75 168 -181 252 -198 59 -13 175 -5 262 18 125
32 382 127 588 216 124 54 577 279 590 294 3 3 30 18 60 33 83 43 382 214 408
234 l23 18 -56 144 c-31 80 -60 154 -65 165 -5 11 -12 30 -15 43 -4 12 -10 22
-14 22 -4 0 -68 -25 -142 -56 -74 -30 -138 -57 -144 -58 -5 -1 -35 -10 -65
-20 -30 -10 -89 -20 -131 -23 -64 -4 -83 -1 -118 16 -51 26 -66 49 -84 127
-14 64 -16 237 -3 349 4 33 9 78 12 100 2 22 9 69 15 105 6 36 12 83 15 105 3
22 9 60 14 85 5 25 12 63 15 85 17 107 24 146 50 265 3 14 8 41 11 60 9 60 12
75 14 75 2 0 6 20 14 65 4 19 9 42 11 50 2 8 7 35 10 60 4 24 8 48 11 51 2 4
6 24 10 44 3 21 8 47 10 59 2 11 7 36 10 55 9 56 13 71 17 79 3 4 8 27 11 52
7 49 14 91 21 130 3 14 8 37 10 53 3 15 7 39 10 55 3 15 8 43 11 62 3 19 7 42
9 50 4 14 13 60 20 105 3 17 11 73 20 140 2 11 4 20 5 20 2 0 2 3 15 105 5 36
9 72 10 80 4 27 16 144 20 190 6 63 6 338 0 380 -2 19 -7 58 -10 85 -18 140
-78 274 -158 355 -48 47 -147 106 -193 115 -10 2 -21 4 -24 5 -3 1 -8 2 -11 2
-4 -1 -20 3 -37 7 -17 5 -68 12 -114 16 -46 4 -86 9 -89 11 -3 2 -8 2 -10 0z"/>
<path d="M7580 14353 c-69 -7 -207 -35 -295 -60 -49 -14 -94 -26 -100 -28 -5
-1 -17 -5 -25 -8 -14 -5 -89 -30 -100 -32 -3 -1 -18 -7 -33 -13 -16 -7 -31
-12 -34 -12 -12 0 -315 -146 -378 -183 -100 -57 -140 -82 -145 -88 -3 -3 -16
-12 -29 -19 -14 -7 -30 -17 -35 -21 -6 -5 -56 -43 -111 -85 -54 -42 -105 -82
-111 -88 -6 -6 -62 -58 -125 -116 -126 -117 -270 -263 -374 -381 -46 -52 -210
-262 -218 -279 -6 -14 -66 -101 -85 -125 -4 -5 -9 -13 -10 -17 -1 -4 -19 -34
-40 -67 -39 -62 -70 -116 -73 -129 -1 -4 -12 -24 -25 -44 -19 -29 -92 -176
-99 -198 -1 -3 -7 -18 -14 -35 -7 -16 -14 -34 -15 -40 -1 -5 -6 -17 -11 -25
-5 -8 -10 -19 -11 -25 -1 -5 -14 -43 -29 -84 -28 -77 -71 -221 -79 -262 -3
-13 -5 -24 -6 -24 -3 0 -32 -151 -44 -236 -3 -20 -7 -42 -10 -50 -26 -79 -25
-587 0 -739 3 -19 8 -46 10 -60 2 -14 7 -36 10 -50 3 -14 8 -36 10 -50 8 -42
44 -164 54 -182 6 -10 10 -23 10 -28 0 -6 23 -57 51 -113 29 -56 57 -112 63
-124 6 -13 14 -23 19 -23 4 0 7 -5 7 -12 0 -6 23 -42 50 -80 28 -38 50 -70 50
-73 0 -16 191 -202 260 -254 41 -31 78 -60 81 -64 3 -5 10 -9 15 -9 5 -1 27
-12 49 -26 40 -25 197 -102 219 -107 6 -1 20 -5 31 -9 77 -29 99 -37 156 -51
67 -18 85 -22 134 -30 17 -3 44 -8 60 -11 105 -20 324 -6 489 31 37 8 71 17
75 20 4 2 22 7 40 10 18 3 40 10 49 15 9 4 55 21 102 37 47 15 87 31 88 35 2
5 8 8 13 8 18 0 201 85 242 113 15 10 27 15 27 11 0 -4 8 0 18 8 9 8 44 30 77
48 83 47 246 150 271 172 11 10 24 15 27 11 4 -3 7 -1 7 6 0 6 10 16 23 22 12
5 36 20 52 32 17 12 73 53 125 92 52 38 100 73 105 77 6 5 35 27 65 50 30 24
60 47 66 53 6 5 26 21 44 35 30 22 76 59 135 108 11 10 58 48 105 87 47 38 87
72 90 75 3 3 48 41 100 85 52 44 101 86 109 93 12 12 8 24 -23 84 -115 220
-187 328 -219 328 -7 0 -23 -10 -37 -23 -14 -12 -45 -38 -70 -57 -25 -19 -46
-38 -48 -42 -2 -5 -10 -8 -17 -8 -7 0 -15 -3 -17 -7 -3 -8 -74 -65 -118 -96
-14 -10 -41 -30 -61 -45 -95 -71 -241 -172 -249 -172 -4 0 -10 -3 -12 -8 -2
-6 -62 -46 -228 -150 -70 -45 -311 -169 -391 -202 -41 -17 -83 -35 -94 -40
-98 -41 -225 -68 -310 -65 -99 4 -110 6 -192 45 -90 43 -196 149 -271 270 -58
96 -115 233 -152 365 -22 83 -50 227 -44 236 3 5 1 9 -4 9 -5 0 -9 7 -9 15 0
8 19 21 41 30 23 8 73 26 111 41 39 14 75 27 80 28 11 3 56 21 90 35 11 5 58
23 105 41 47 18 99 39 115 46 170 71 202 84 213 84 7 0 12 5 12 10 0 6 6 10
14 10 14 0 146 60 331 151 44 21 84 39 89 38 5 0 12 3 15 8 3 5 56 35 116 67
61 32 168 92 238 134 71 43 137 82 148 88 10 6 27 18 37 27 10 10 21 17 25 17
28 0 334 245 442 354 130 131 305 357 305 394 0 7 3 12 8 12 7 0 40 67 81 167
40 98 72 271 76 411 4 143 -33 299 -92 394 -13 21 -23 42 -23 48 0 5 -4 10
-10 10 -5 0 -10 5 -10 10 0 14 -12 29 -85 103 -67 69 -121 117 -131 117 -4 0
-22 12 -41 26 -28 21 -166 91 -198 100 -5 2 -41 14 -80 28 -38 13 -83 27 -100
30 -16 3 -50 10 -75 15 -25 5 -66 12 -90 16 -51 7 -357 13 -410 8z m-241 -747
c77 -40 161 -165 177 -263 9 -50 8 -245 0 -308 -20 -147 -71 -266 -158 -371
-189 -230 -507 -442 -1082 -721 l-68 -33 6 102 c4 57 8 114 11 128 2 14 6 43
9 65 3 22 7 49 9 60 3 11 8 43 12 70 5 28 9 52 10 55 1 3 5 25 9 50 5 25 11
50 14 55 7 11 7 13 17 59 3 16 10 37 15 46 5 9 11 28 14 41 6 34 68 184 112
271 20 40 44 88 52 106 9 17 20 32 24 32 4 0 8 4 8 9 0 13 99 163 117 178 8 6
15 15 15 20 1 16 94 120 146 164 29 24 78 61 110 82 31 20 62 41 67 45 23 19
133 65 180 77 56 13 126 5 174 -19z"/>
<path d="M11348 14355 c-2 -2 -28 -6 -58 -9 -30 -3 -64 -8 -75 -10 -11 -2 -42
-7 -69 -10 -27 -4 -53 -9 -56 -11 -4 -2 -22 -7 -41 -10 -118 -21 -347 -92
-489 -152 -108 -46 -311 -154 -338 -180 -7 -7 -17 -13 -21 -13 -12 0 -169
-115 -230 -168 -92 -81 -183 -176 -236 -247 -17 -22 -33 -41 -37 -43 -5 -2 -8
-8 -8 -14 0 -5 -11 -24 -24 -41 -33 -43 -101 -193 -98 -217 0 -3 -4 -13 -10
-24 -6 -10 -11 -28 -13 -40 -2 -11 -6 -31 -9 -44 -3 -13 -8 -58 -11 -100 -4
-42 -9 -80 -11 -84 -3 -5 -2 -8 3 -8 4 0 8 -26 9 -58 1 -67 8 -127 24 -197 6
-27 13 -57 15 -65 7 -33 35 -101 64 -160 102 -204 288 -396 540 -555 50 -32
237 -134 245 -134 5 1 12 -3 15 -8 3 -5 35 -24 71 -42 36 -19 67 -38 68 -43 2
-4 8 -8 14 -8 11 0 122 -65 271 -159 49 -31 96 -60 105 -66 10 -5 19 -12 22
-15 3 -3 23 -19 45 -35 78 -58 205 -179 205 -195 0 -6 4 -10 9 -10 20 0 123
-167 154 -250 30 -80 40 -219 23 -302 -3 -16 -8 -40 -11 -55 -6 -28 -21 -66
-53 -133 -9 -19 -49 -66 -87 -105 -84 -85 -180 -137 -300 -161 -78 -16 -260
-26 -279 -16 -5 3 -30 7 -55 9 -189 14 -441 174 -634 403 -39 47 -147 204
-147 215 0 4 -13 26 -30 50 -16 24 -30 48 -30 54 0 6 -4 11 -10 11 -5 0 -10 4
-10 10 0 5 -18 40 -40 77 -172 289 -189 309 -251 304 -18 -1 -103 -77 -127
-114 -9 -14 -45 -64 -79 -111 -35 -47 -63 -90 -63 -95 0 -5 -6 -14 -14 -20 -8
-7 -22 -26 -31 -44 -9 -18 -32 -59 -51 -92 -50 -85 -174 -343 -174 -360 0 -8
-5 -15 -12 -15 -6 0 -8 -3 -5 -6 3 -4 2 -15 -4 -26 -6 -11 -12 -27 -14 -36 -3
-9 -8 -33 -13 -52 -44 -182 199 -445 581 -628 48 -23 94 -42 102 -42 7 0 17
-4 20 -10 3 -5 16 -10 29 -10 12 0 26 -4 32 -9 8 -9 221 -77 269 -87 11 -2 31
-6 45 -9 14 -3 40 -8 59 -11 18 -3 43 -8 55 -10 23 -5 73 -11 156 -19 120 -13
390 -7 475 9 11 2 42 7 68 10 103 15 297 66 431 112 56 19 106 36 111 38 123
34 579 288 679 379 11 9 23 17 26 17 4 0 16 8 27 18 11 9 42 35 69 57 39 32
127 112 177 162 45 45 161 195 196 253 61 103 135 267 145 323 1 7 5 21 9 32
30 93 32 343 3 480 -7 36 -27 110 -33 125 -4 8 -7 17 -8 20 -3 9 -26 65 -38
93 -7 15 -15 27 -18 27 -4 0 -10 11 -13 24 -3 14 -12 31 -19 38 -6 7 -21 30
-32 51 -11 20 -23 37 -27 37 -5 0 -8 6 -8 14 0 8 -3 16 -7 18 -5 2 -26 26 -48
53 -45 57 -171 184 -230 232 -133 109 -311 220 -580 363 -66 35 -142 76 -170
91 -27 15 -81 44 -120 65 -38 20 -101 56 -138 80 -37 24 -72 44 -77 44 -6 0
-10 4 -10 8 0 4 -14 16 -32 26 -58 35 -144 115 -193 181 -16 22 -32 42 -35 45
-6 6 -35 66 -46 95 -21 56 -25 87 -26 175 -1 145 45 265 133 349 43 41 142 87
210 97 65 10 230 11 279 2 65 -12 222 -82 240 -107 3 -4 32 -28 65 -53 82 -64
111 -91 331 -308 238 -236 277 -255 379 -195 37 21 215 188 215 201 0 2 14 18
30 34 17 16 30 34 30 39 0 5 3 11 8 13 8 3 50 52 97 112 17 21 38 48 49 60 10
11 32 40 49 64 17 23 34 42 39 42 4 0 8 4 8 9 0 5 41 64 91 131 50 67 89 124
86 127 -5 4 -33 12 -100 28 -63 15 -183 59 -261 97 -33 15 -63 28 -67 28 -4 0
-41 16 -82 35 -41 19 -81 35 -89 35 -8 0 -18 4 -23 9 -20 19 -330 133 -425
157 -8 2 -42 11 -75 20 -69 19 -76 20 -142 30 -26 3 -57 9 -68 11 -23 6 -402
13 -407 8z"/>
<path d="M20405 14345 c-104 -21 -246 -63 -456 -135 -112 -39 -208 -72 -214
-74 -5 -1 -21 -7 -35 -13 -14 -6 -86 -34 -160 -63 -74 -29 -148 -58 -165 -65
-16 -7 -66 -28 -110 -45 -44 -17 -104 -43 -133 -56 -29 -13 -55 -24 -58 -24
-3 0 -24 -8 -47 -19 -46 -20 -79 -34 -87 -36 -3 0 -23 -9 -45 -19 -22 -10 -49
-22 -60 -26 -11 -4 -47 -20 -80 -35 -33 -15 -75 -34 -92 -41 -31 -14 -41 -32
-26 -48 4 -3 8 -17 10 -29 2 -12 10 -49 19 -82 19 -74 18 -67 33 -140 12 -56
40 -123 41 -100 0 6 8 11 18 12 9 1 31 7 47 14 17 7 35 13 40 15 168 50 205
59 262 68 7 1 15 4 17 7 9 9 119 1 148 -10 40 -15 76 -70 92 -141 14 -60 15
-274 2 -380 -8 -67 -16 -125 -22 -165 -4 -22 -8 -51 -10 -65 -5 -47 -14 -115
-24 -170 -5 -30 -11 -71 -14 -90 -3 -19 -8 -46 -11 -60 -2 -14 -7 -41 -9 -60
-3 -19 -8 -47 -11 -62 -6 -33 -10 -54 -30 -168 -16 -91 -22 -121 -30 -160 -8
-40 -14 -72 -20 -110 -5 -33 -8 -47 -19 -99 -2 -10 -7 -36 -10 -57 -4 -22 -11
-61 -16 -89 -5 -27 -12 -62 -15 -77 -3 -16 -7 -38 -10 -50 -5 -24 -51 -288
-61 -347 -3 -18 -8 -43 -10 -55 -2 -11 -7 -41 -10 -66 -3 -25 -7 -52 -9 -60
-3 -8 -7 -33 -10 -55 -4 -22 -15 -94 -25 -160 -11 -66 -22 -142 -25 -170 -3
-27 -7 -61 -10 -75 -12 -59 -19 -196 -19 -340 0 -153 10 -220 45 -305 7 -16
12 -33 11 -37 -1 -3 5 -12 13 -18 8 -7 15 -17 15 -22 0 -11 11 -25 75 -93 80
-85 167 -123 270 -118 78 4 86 4 160 20 95 20 94 19 143 37 23 8 43 14 45 13
1 -1 21 5 42 14 22 9 85 34 140 54 55 21 104 42 109 46 6 5 15 9 22 9 23 0
435 197 487 232 15 11 27 17 27 14 0 -3 37 16 83 43 45 26 97 54 115 62 17 7
32 17 32 21 0 5 4 8 9 8 8 0 125 65 387 217 l41 23 -22 80 c-13 45 -23 83 -24
85 0 3 -1 6 -2 8 -3 9 -11 45 -14 62 -2 11 -7 31 -13 45 -5 14 -10 28 -11 32
-10 54 -14 68 -20 68 -3 0 -53 -20 -111 -43 -116 -48 -256 -93 -310 -101 -19
-2 -35 -5 -35 -6 0 -1 -38 -4 -84 -7 -153 -8 -190 37 -197 237 -1 41 -3 77 -4
80 -1 3 -1 10 0 15 1 6 4 37 6 70 4 79 13 175 18 200 2 12 7 48 11 80 4 33 9
69 11 80 3 11 7 38 10 60 2 22 7 51 9 65 8 46 36 225 41 260 3 19 7 46 10 60
3 14 11 61 19 105 8 44 17 91 20 105 3 14 7 39 10 55 2 17 7 41 10 55 3 14 8
41 11 60 3 19 7 42 9 50 3 8 7 32 11 54 3 21 8 48 10 60 2 11 7 36 10 55 3 18
8 43 10 55 2 11 6 35 9 51 3 17 10 53 15 80 5 28 12 65 15 83 7 42 14 81 20
112 3 14 8 45 11 70 3 25 8 48 10 52 2 3 7 28 10 55 3 26 7 55 9 63 3 8 7 33
10 55 3 22 8 51 11 65 3 14 7 34 9 45 2 11 9 48 15 83 6 34 13 77 15 95 3 18
7 43 10 57 2 13 7 42 10 65 3 22 8 52 11 66 3 14 7 48 9 75 5 50 12 105 21
159 11 65 14 324 4 370 -17 91 -19 97 -31 111 -6 8 -8 14 -5 14 8 0 -26 50
-58 88 -11 12 -25 22 -32 22 -7 0 -14 3 -16 8 -1 4 -21 15 -44 23 -48 19 -145
21 -229 4z"/>
</g>
</svg>
