<?xml version="1.0" standalone="no"?>
<!DOCTYPE svg PUBLIC "-//W3C//DTD SVG 20010904//EN"
 "http://www.w3.org/TR/2001/REC-SVG-20010904/DTD/svg10.dtd">
<svg version="1.0" xmlns="http://www.w3.org/2000/svg"
 width="332.000000pt" height="332.000000pt" viewBox="0 0 332.000000 332.000000"
 preserveAspectRatio="xMidYMid meet">
<metadata>
Created by potrace 1.14, written by Peter Selinger 2001-2017
</metadata>
<g transform="translate(0.000000,332.000000) scale(0.100000,-0.100000)"
fill="#000000" stroke="none">
<path d="M1007 2006 c-10 -27 6 -36 64 -36 l59 0 0 -96 0 -95 28 3 27 3 0 90
0 90 55 3 c54 3 72 14 64 37 -7 16 -291 17 -297 1z"/>
<path d="M1337 2014 c-4 -4 -7 -58 -7 -121 l0 -113 30 0 c29 0 30 1 30 48 l0
48 78 -1 77 0 3 -47 c3 -45 5 -48 30 -48 l27 0 0 113 c0 112 -4 127 -37 127
-13 0 -18 -11 -20 -47 l-3 -48 -75 0 -75 -1 -5 46 c-4 36 -9 46 -25 48 -12 2
-24 0 -28 -4z"/>
<path d="M1646 2011 c-2 -3 -3 -57 -3 -118 l0 -113 142 0 142 0 -5 25 c-4 25
-5 25 -113 25 -107 0 -109 0 -109 23 0 22 3 23 88 22 86 0 87 0 87 25 0 24 -1
25 -87 24 -86 0 -88 1 -88 24 0 23 1 23 108 21 l107 -2 3 25 3 25 -136 0 c-75
0 -137 -3 -139 -6z"/>
<path d="M11 1883 c8 -10 20 -24 27 -31 6 -7 12 -18 12 -23 0 -5 43 -9 95 -9
l95 0 0 -190 0 -190 40 0 40 0 0 100 0 100 90 0 90 0 20 40 20 40 -100 0 -100
0 0 50 0 50 100 0 100 0 20 40 20 40 -291 0 c-276 0 -291 -1 -278 -17z"/>
<path d="M1024 1568 c-6 -9 -6 -26 -5 -165 1 -62 1 -63 29 -63 27 0 28 2 28
43 l-1 42 95 5 c87 5 95 7 95 25 0 18 -8 20 -95 25 -87 5 -95 7 -95 25 0 19 8
20 113 23 111 3 113 3 110 25 -3 21 -7 22 -136 23 -76 1 -135 -2 -138 -8z"/>
<path d="M1325 1572 c-3 -3 -5 -14 -5 -24 0 -15 8 -18 60 -18 l60 0 0 -70 0
-70 -60 0 c-57 0 -60 -1 -60 -25 l0 -25 148 0 c148 0 149 0 147 23 -1 20 -8
23 -61 27 l-59 5 0 65 0 65 62 3 c58 3 62 5 59 25 -3 21 -7 22 -144 23 -78 1
-144 -1 -147 -4z"/>
<path d="M1643 1573 c-7 -3 -13 -13 -13 -23 0 -16 9 -19 61 -22 l62 -3 -1 -92
-1 -93 29 0 30 0 0 95 0 95 60 0 c56 0 60 1 60 23 0 24 0 24 -137 24 -76 0
-144 -2 -150 -4z"/>
<path d="M2112 1563 c-40 -20 -62 -59 -62 -112 0 -71 66 -121 155 -115 17 1
40 2 51 3 28 1 84 54 84 78 0 26 -39 23 -75 -5 -58 -46 -155 -17 -155 46 0 35
10 49 43 61 45 18 83 13 115 -14 36 -30 72 -33 72 -7 0 23 -34 60 -67 73 -38
14 -125 10 -161 -8z"/>
<path d="M2376 1571 c-2 -3 -3 -57 -3 -118 l0 -113 142 0 c131 0 143 1 140 18
-2 9 -4 20 -4 25 -1 4 -50 7 -111 7 l-110 0 0 94 c0 93 0 94 -25 94 -14 0 -27
-3 -29 -7z"/>
<path d="M2687 1567 c-2 -7 -4 -50 -3 -96 2 -80 3 -85 32 -107 28 -23 44 -27
114 -26 65 0 71 2 100 31 28 27 29 32 27 117 -2 88 -2 89 -27 89 -24 0 -25 -2
-28 -80 -3 -94 -12 -105 -83 -105 -69 0 -79 14 -79 111 0 77 -1 79 -24 79 -13
0 -26 -6 -29 -13z"/>
<path d="M2998 1516 c-2 -34 -2 -87 0 -118 l3 -58 113 0 c96 0 117 3 136 18
26 21 31 79 8 93 -10 7 -10 11 0 21 17 17 15 63 -4 82 -18 19 -19 19 -151 21
l-101 1 -4 -60z m209 -1 c9 -24 -3 -29 -75 -31 -67 -2 -85 6 -75 33 8 20 142
18 150 -2z m4 -96 c14 -23 -1 -29 -76 -29 -72 0 -88 8 -78 36 5 15 144 9 154
-7z"/>
</g>
</svg>
